<svg xmlns="http://www.w3.org/2000/svg" version="1.1" xmlns:xlink="http://www.w3.org/1999/xlink" xmlns:svgjs="http://svgjs.dev/svgjs" width="1500" height="280" viewBox="0 0 1500 280"><g transform="matrix(1,0,0,1,-0.9157150943016177,-0.5264888848384146)"><svg viewBox="0 0 396 74" data-background-color="#ffffff" preserveAspectRatio="xMidYMid meet" height="280" width="1500" xmlns="http://www.w3.org/2000/svg" xmlns:xlink="http://www.w3.org/1999/xlink"><g id="tight-bounds" transform="matrix(1,0,0,1,0.24174878489563412,0.13914349099300694)"><svg viewBox="0 0 395.5199999999999 73.721713018014" height="73.721713018014" width="395.5199999999999"><g><svg viewBox="0 0 395.5199999999999 73.721713018014" height="73.721713018014" width="395.5199999999999"><g><svg viewBox="0 0 395.5199999999999 73.721713018014" height="73.721713018014" width="395.5199999999999"><g id="textblocktransform"><svg viewBox="0 0 395.5199999999999 73.721713018014" height="73.721713018014" width="395.5199999999999" id="textblock"><g><svg viewBox="0 0 395.5199999999999 73.721713018014" height="73.721713018014" width="395.5199999999999"><g transform="matrix(1,0,0,1,0,0)"><svg width="395.5199999999999" viewBox="1.15 -36.7 197.69 36.85" height="73.721713018014" data-palette-color="#000000"><g class="wordmark-text-0" data-fill-palette-color="primary" id="text-0"><path d="M22.75-0.1L13.8-0.1Q11.35-0.1 9.13-0.55 6.9-1 5.23-2.27 3.55-3.55 2.58-5.98 1.6-8.4 1.6-12.35L1.6-12.35Q1.6-15.9 2.55-18.45 3.5-21 4.83-22.5 6.15-24 7.25-24.35L7.25-24.35 7-25.3 6.15-25.3Q3.85-25.3 2.53-26.78 1.2-28.25 1.15-30.8L1.15-30.8Q1.1-33.3 2.48-34.8 3.85-36.3 6.15-36.3L6.15-36.3 24.1-36.3Q29.45-36.3 29.45-31.3L29.45-31.3Q29.45-29.05 28.15-27.7 26.85-26.35 24.1-26.35L24.1-26.35 13.75-26.35Q11.9-26.35 11.9-24.2L11.9-24.2 11.9-20.45Q14.4-21 17.13-21.75 19.85-22.5 22.3-22.5L22.3-22.5Q24.65-22.5 25.83-21.48 27-20.45 27-18.7L27-18.7Q27-16.9 25.83-15.88 24.65-14.85 22.3-14.8L22.3-14.8Q19.85-14.75 17.1-15.5 14.35-16.25 11.85-16.8L11.85-16.8 11.85-10.25Q11.85-9.3 12.38-8.93 12.9-8.55 14.05-9.2L14.05-9.2Q16.55-10.65 18.95-11.53 21.35-12.4 23.65-12.4L23.65-12.4Q26.9-12.4 28.58-10.7 30.25-9 30.25-6.25L30.25-6.25Q30.25-3.3 28.48-1.7 26.7-0.1 22.75-0.1L22.75-0.1ZM49.35 0.15L49.35 0.15Q46 0.15 43.82-1.15 41.65-2.45 40.27-4.9 38.9-7.35 37.8-10.85L37.8-10.85 32.2-28.8Q31.4-31.3 32.32-33.18 33.25-35.05 35.65-35.75L35.65-35.75Q37.85-36.4 39.65-35.48 41.45-34.55 42.1-32.35L42.1-32.35 47.55-15.05Q48.4-12.25 49.72-11.33 51.05-10.4 52.6-10.9L52.6-10.9Q54.2-11.35 54.65-12.73 55.1-14.1 54.4-16.9L54.4-16.9Q53.25-21.9 52.85-24.75 52.45-27.6 52.45-29.25L52.45-29.25Q52.45-32.05 53.97-34.08 55.5-36.1 58.7-36.1L58.7-36.1Q61.85-36.1 63.27-34.08 64.7-32.05 64.7-29.25L64.7-29.25Q64.7-27.6 64.25-25.85 63.8-24.1 63.2-22.25L63.2-22.25 58.75-8.8Q57.85-6.1 56.77-4.08 55.7-2.05 53.97-0.95 52.25 0.15 49.35 0.15ZM88.59-0.1L79.64-0.1Q77.19-0.1 74.97-0.55 72.75-1 71.07-2.27 69.39-3.55 68.42-5.98 67.44-8.4 67.44-12.35L67.44-12.35Q67.44-15.9 68.39-18.45 69.34-21 70.67-22.5 72-24 73.09-24.35L73.09-24.35 72.84-25.3 72-25.3Q69.69-25.3 68.37-26.78 67.05-28.25 67-30.8L67-30.8Q66.94-33.3 68.32-34.8 69.69-36.3 72-36.3L72-36.3 89.94-36.3Q95.3-36.3 95.3-31.3L95.3-31.3Q95.3-29.05 94-27.7 92.69-26.35 89.94-26.35L89.94-26.35 79.59-26.35Q77.75-26.35 77.75-24.2L77.75-24.2 77.75-20.45Q80.25-21 82.97-21.75 85.69-22.5 88.14-22.5L88.14-22.5Q90.5-22.5 91.67-21.48 92.84-20.45 92.84-18.7L92.84-18.7Q92.84-16.9 91.67-15.88 90.5-14.85 88.14-14.8L88.14-14.8Q85.69-14.75 82.94-15.5 80.19-16.25 77.69-16.8L77.69-16.8 77.69-10.25Q77.69-9.3 78.22-8.93 78.75-8.55 79.89-9.2L79.89-9.2Q82.39-10.65 84.8-11.53 87.19-12.4 89.5-12.4L89.5-12.4Q92.75-12.4 94.42-10.7 96.09-9 96.09-6.25L96.09-6.25Q96.09-3.3 94.32-1.7 92.55-0.1 88.59-0.1L88.59-0.1ZM103.24 0L103.24 0Q100.74 0 99.44-1.55 98.14-3.1 98.14-5.7L98.14-5.7 98.14-29.15Q98.14-31.75 99.12-33.38 100.09-35 101.67-35.75 103.24-36.5 105.09-36.5L105.09-36.5Q107.84-36.5 109.74-35.05 111.64-33.6 112.69-29.95L112.69-29.95 118.09-11.5 118.89-11.5 118.89-30.7Q118.89-33.35 120.24-34.88 121.59-36.4 124.09-36.4L124.09-36.4Q126.69-36.4 127.97-34.88 129.24-33.35 129.24-30.7L129.24-30.7 129.24-8.1Q129.24-3.9 127.39-1.9 125.54 0.1 122.19 0.1L122.19 0.1Q118.79 0.1 116.89-1.7 114.99-3.5 113.99-7L113.99-7 110.44-19.15Q110.34-19.65 110.07-20.08 109.79-20.5 109.34-20.5L109.34-20.5Q108.79-20.5 108.59-20.08 108.39-19.65 108.39-19.15L108.39-19.15 108.39-5.7Q108.39-3.1 107.09-1.55 105.79 0 103.24 0ZM136.94-25.3L136.94-25.3Q134.44-25.3 132.87-26.75 131.29-28.2 131.29-30.75L131.29-30.75Q131.29-33.25 132.72-34.77 134.14-36.3 136.94-36.3L136.94-36.3 158.49-36.3Q161.29-36.3 162.72-34.77 164.14-33.25 164.14-30.75L164.14-30.75Q164.14-28.2 162.56-26.75 160.99-25.3 158.49-25.3L158.49-25.3Q156.79-25.3 155.77-25.68 154.74-26.05 154.09-26.58 153.44-27.1 152.84-27.48 152.24-27.85 151.34-27.85L151.34-27.85 150.89-26.95Q151.09-26.5 151.59-25.68 152.09-24.85 152.54-23.33 152.99-21.8 152.99-19.2L152.99-19.2 152.99-4.75Q152.99-2.7 151.47-1.35 149.94 0 147.74 0L147.74 0Q145.49 0 143.97-1.35 142.44-2.7 142.44-4.75L142.44-4.75 142.44-19.2Q142.44-21.8 142.89-23.33 143.34-24.85 143.87-25.68 144.39-26.5 144.59-26.95L144.59-26.95 144.09-27.85Q143.19-27.85 142.59-27.48 141.99-27.1 141.34-26.58 140.69-26.05 139.69-25.68 138.69-25.3 136.94-25.3ZM182.34 0.15L182.34 0.15Q176.99 0.15 173.29-2.2 169.59-4.55 167.69-8.7 165.79-12.85 165.79-18.25L165.79-18.25Q165.79-23.6 167.69-27.78 169.59-31.95 173.29-34.33 176.99-36.7 182.34-36.7L182.34-36.7Q187.69-36.7 191.36-34.33 195.04-31.95 196.94-27.78 198.84-23.6 198.84-18.25L198.84-18.25Q198.84-12.85 196.94-8.7 195.04-4.55 191.36-2.2 187.69 0.15 182.34 0.15ZM172.09-19.05L172.09-19.05Q172.09-17.5 172.84-16.13 173.59-14.75 175.79-13.93 177.99-13.1 182.34-13.1L182.34-13.1Q186.69-13.1 188.86-13.93 191.04-14.75 191.79-16.13 192.54-17.5 192.54-19.05L192.54-19.05Q192.54-20.65 191.79-21.93 191.04-23.2 188.86-23.98 186.69-24.75 182.34-24.75L182.34-24.75Q177.99-24.75 175.79-23.98 173.59-23.2 172.84-21.93 172.09-20.65 172.09-19.05Z" fill="#000000" data-fill-palette-color="primary"></path></g></svg></g></svg></g></svg></g></svg></g></svg></g><defs></defs></svg><rect width="395.5199999999999" height="73.721713018014" fill="none" stroke="none" visibility="hidden"></rect></g></svg></g></svg>